<?xml version="1.0" encoding="UTF-8" standalone="no"?>
<!-- Created with Inkscape (http://www.inkscape.org/) -->
<svg
   xmlns:dc="http://purl.org/dc/elements/1.1/"
   xmlns:cc="http://creativecommons.org/ns#"
   xmlns:rdf="http://www.w3.org/1999/02/22-rdf-syntax-ns#"
   xmlns:svg="http://www.w3.org/2000/svg"
   xmlns="http://www.w3.org/2000/svg"
   xmlns:sodipodi="http://sodipodi.sourceforge.net/DTD/sodipodi-0.dtd"
   xmlns:inkscape="http://www.inkscape.org/namespaces/inkscape"
   width="44.598751"
   height="26.178749"
   id="svg3402"
   sodipodi:version="0.32"
   inkscape:version="0.46"
   version="1.0"
   sodipodi:docname="Université d'Orléans.svg"
   inkscape:output_extension="org.inkscape.output.svg.inkscape">
  <defs
     id="defs3404">
    <clipPath
       clipPathUnits="userSpaceOnUse"
       id="clipPath909">
      <path
         d="M 583.691,616.536 L 619.371,616.536 L 619.371,637.48 L 583.691,637.48 L 583.691,616.536 z"
         id="path911" />
    </clipPath>
    <clipPath
       clipPathUnits="userSpaceOnUse"
       id="clipPath901">
      <path
         d="M 583.691,616.536 L 619.371,616.536 L 619.371,637.48 L 583.691,637.48 L 583.691,616.536 z"
         id="path903" />
    </clipPath>
    <inkscape:perspective
       sodipodi:type="inkscape:persp3d"
       inkscape:vp_x="0 : 526.18109 : 1"
       inkscape:vp_y="0 : 1000 : 0"
       inkscape:vp_z="744.09448 : 526.18109 : 1"
       inkscape:persp3d-origin="372.04724 : 350.78739 : 1"
       id="perspective3410" />
  </defs>
  <sodipodi:namedview
     id="base"
     pagecolor="#ffffff"
     bordercolor="#666666"
     borderopacity="1.0"
     inkscape:pageopacity="0.0"
     inkscape:pageshadow="2"
     inkscape:zoom="19.366853"
     inkscape:cx="22.299375"
     inkscape:cy="13.089374"
     inkscape:document-units="px"
     inkscape:current-layer="g899"
     showgrid="false"
     inkscape:window-width="1024"
     inkscape:window-height="712"
     inkscape:window-x="-4"
     inkscape:window-y="-4" />
  <metadata
     id="metadata3407">
    <rdf:RDF>
      <cc:Work
         rdf:about="">
        <dc:format>image/svg+xml</dc:format>
        <dc:type
           rdf:resource="http://purl.org/dc/dcmitype/StillImage" />
      </cc:Work>
    </rdf:RDF>
  </metadata>
  <g
     inkscape:label="Calque 1"
     inkscape:groupmode="layer"
     id="layer1"
     transform="translate(-326.27205,-396.41565)">
    <g
       transform="matrix(1.25,0,0,-1.25,-403.3417,1193.2644)"
       id="g897">
      <g
         id="g899"
         clip-path="url(#clipPath901)">
        <g
           id="g905"
           style="fill:#01a769;fill-opacity:1">
          <g
             id="g907"
             clip-path="url(#clipPath909)"
             style="fill:#01a769;fill-opacity:1">
            <path
               d="M 584.671,626.509 C 584.671,626.509 584.206,626.581 584.171,626.151 C 584.171,626.151 584.028,626.044 584.099,625.365 C 584.099,625.365 583.598,624.721 583.706,624.471 L 583.956,624.685 C 583.956,624.685 584.028,625.043 584.099,624.9 C 584.099,624.9 584.6,625.686 584.6,625.472 C 584.6,625.472 584.743,625.4 584.922,625.4 C 584.922,625.4 584.993,625.436 584.957,625.043 C 584.957,625.043 585.088,624.983 584.969,624.84 C 584.969,624.84 584.945,624.733 584.814,624.888 C 584.814,624.888 584.826,624.435 585.005,624.411 C 585.005,624.411 584.695,623.934 584.516,623.898 L 584.564,623.851 L 584.528,623.803 L 584.516,623.743 L 584.48,623.696 L 584.492,623.588 L 584.421,623.564 L 584.314,623.493 L 584.385,623.445 C 584.385,623.445 584.48,622.933 584.385,622.885 L 584.409,622.849 L 584.373,622.718 L 584.469,622.706 L 584.504,622.718 C 584.504,622.718 584.624,622.503 584.54,622.456 L 584.624,622.432 C 584.624,622.432 584.683,622.36 584.671,622.313 L 584.767,622.253 C 584.767,622.253 584.838,622.384 584.862,622.444 C 584.862,622.444 584.993,622.563 584.993,622.492 C 584.993,622.492 585.148,622.694 585.208,622.682 L 585.434,623.016 L 585.494,623.016 L 585.446,622.837 L 585.518,622.79 L 585.339,622.372 L 585.375,622.325 L 585.577,622.444 L 585.637,622.432 L 585.518,622.265 C 585.518,622.265 585.708,622.444 585.756,622.408 C 585.804,622.372 585.828,622.396 585.828,622.396 L 585.756,622.301 C 585.756,622.301 586.722,622.718 586.877,622.67 C 586.877,622.67 587.985,622.909 588.021,622.968 C 588.057,623.028 588.009,622.933 588.009,622.933 L 588.641,623.183 L 588.546,623.004 L 588.724,623.016 L 588.534,622.885 C 588.534,622.885 588.855,622.79 588.82,622.718 L 590.214,622.968 L 590.214,622.766 L 590.262,622.766 L 590.214,622.67 L 590.25,622.611 C 590.25,622.611 589.964,621.836 589.988,621.586 L 590.083,621.407 L 590.131,621.276 L 590.25,621.252 L 590.322,621.133 C 590.322,621.133 590.62,621.061 590.584,620.99 C 590.584,620.99 590.787,620.763 590.763,620.715 C 590.763,620.715 591.085,620.429 591.025,620.346 C 591.025,620.346 592.086,620.441 592.146,620.286 C 592.146,620.286 592.909,620.584 593.028,620.596 C 593.147,620.608 593.254,620.644 593.254,620.644 L 593.278,620.703 L 593.493,620.68 L 593.588,620.703 L 593.648,620.835 L 593.91,620.906 L 593.91,620.846 L 593.958,620.906 L 593.993,620.906 L 594.029,620.823 L 594.279,620.966 C 594.279,620.966 595.221,621.264 595.233,621.431 C 595.245,621.598 595.364,621.562 595.364,621.562 L 595.519,621.657 L 595.638,621.776 L 595.698,621.86 L 595.817,621.86 L 596.425,622.349 C 596.425,622.349 596.819,622.837 596.878,622.837 C 596.938,622.837 597.307,623.207 597.307,623.207 C 597.307,623.207 597.558,623.588 597.617,623.6 C 597.677,623.612 598.333,623.994 598.333,623.994 C 598.333,623.994 598.523,624.292 598.619,624.339 C 598.714,624.387 598.857,624.435 598.857,624.435 L 598.976,624.554 C 598.976,624.554 600.002,625.46 600.18,625.579 C 600.359,625.698 602.35,626.926 602.374,627.01 C 602.397,627.093 603.733,627.951 603.792,627.951 C 603.852,627.951 604.46,628.464 604.472,628.524 C 604.484,628.583 605.545,629.155 605.64,629.179 C 605.735,629.203 606.081,629.382 606.081,629.382 C 606.081,629.382 606.355,629.656 606.415,629.716 C 606.474,629.775 606.987,630.193 606.987,630.193 L 606.987,630.049 L 607.071,630.038 L 607.118,630.049 L 607.059,630.109 L 607.178,630.204 L 607.404,630.181 L 607.488,630.312 L 607.583,630.419 L 607.631,630.419 L 607.702,630.491 L 607.75,630.574 L 607.869,630.562 L 607.917,630.61 L 607.953,630.669 L 608.072,630.669 L 608.263,630.872 L 608.406,630.86 L 608.453,630.908 L 608.477,631.003 L 608.644,631.051 L 608.74,631.027 L 608.99,631.063 L 609.014,631.158 L 609.085,631.182 L 609.121,631.194 L 609.169,631.301 L 609.228,631.289 L 609.288,631.361 L 609.347,631.444 L 609.383,631.361 L 609.491,631.337 L 609.514,631.42 L 609.657,631.444 L 609.741,631.516 L 609.8,631.492 L 609.836,631.552 L 609.884,631.587 L 610.051,631.623 L 610.313,631.695 L 610.373,631.623 L 610.492,631.778 L 610.551,631.79 L 610.611,631.897 L 610.659,631.766 L 610.909,631.73 L 610.993,631.85 L 611.159,631.897 L 611.291,632.028 L 611.457,632.064 L 611.505,632.148 L 611.708,632.219 L 611.684,632.028 L 611.815,632.052 L 611.863,632.195 L 611.946,632.207 L 611.994,632.052 L 612.221,632.064 L 612.364,632.052 L 612.435,632.159 L 612.518,632.291 L 612.626,632.243 L 612.804,632.315 L 613.043,632.35 L 613.174,632.195 L 613.269,632.326 L 613.335,632.24 L 613.389,632.285 C 613.389,632.285 614.024,632.32 614.122,632.311 C 614.22,632.303 614.318,632.258 614.318,632.258 L 614.497,632.294 L 614.542,632.338 C 614.542,632.338 614.578,632.32 614.605,632.32 C 614.632,632.32 614.998,632.32 615.15,632.311 C 615.302,632.303 615.499,632.311 615.499,632.311 L 615.677,632.32 C 615.677,632.32 615.651,632.311 615.785,632.338 C 615.919,632.365 616.044,632.311 616.044,632.311 C 616.044,632.311 616.062,632.276 616.107,632.311 C 616.151,632.347 616.169,632.347 616.169,632.347 L 616.321,632.303 L 616.545,632.329 L 616.616,632.338 L 616.652,632.24 L 616.831,632.276 L 616.947,632.177 L 617.394,632.195 C 617.394,632.195 618.02,632.106 618.1,632.052 C 618.181,631.999 618.074,632.052 618.074,632.052 C 618.074,632.052 617.966,632.168 617.448,632.258 C 616.929,632.347 617.278,632.32 617.171,632.294 C 617.171,632.294 616.965,632.303 616.938,632.32 C 616.938,632.32 616.563,632.338 617.269,632.464 L 617.591,632.419 L 617.653,632.446 L 617.779,632.392 L 617.814,632.374 L 617.957,632.347 L 618.056,632.329 L 618.1,632.32 C 618.1,632.32 618.199,632.32 618.217,632.294 C 618.235,632.267 618.252,632.213 618.252,632.213 L 618.306,632.222 L 618.413,632.213 C 618.413,632.213 619.084,632.07 619.111,632.034 L 619.093,632.151 L 619.039,632.133 L 618.923,632.159 L 618.816,632.231 L 618.673,632.222 L 618.655,632.267 L 618.601,632.267 L 618.53,632.338 L 618.458,632.329 L 618.395,632.383 L 618.333,632.437 L 618.118,632.446 L 618.118,632.508 L 618.056,632.49 L 618.047,632.571 L 617.966,632.544 L 617.832,632.571 L 617.609,632.651 L 617.537,632.732 L 617.358,632.732 L 617.099,632.759 L 617.117,632.803 L 617.001,632.83 L 616.983,632.866 L 616.464,632.893 L 616.259,633.009 L 615.937,632.973 L 615.847,633.018 L 615.776,633.027 L 615.633,633.027 L 615.436,633.009 L 615.365,633.161 L 615.177,633.143 L 614.783,633.179 L 614.721,633.116 L 614.685,633.063 L 614.524,633.045 L 614.417,633.089 L 614.372,633.045 L 614.202,633.054 L 614.149,633.071 L 614.14,633.116 L 614.113,633.161 L 614.006,633.161 L 613.863,633.152 L 613.648,633.188 L 613.845,633.313 L 613.916,633.429 L 614.024,633.402 L 614.059,633.367 L 614.193,633.313 L 614.757,633.322 L 614.73,633.411 L 614.792,633.411 L 614.81,633.34 L 615.105,633.304 L 615.195,633.322 L 615.239,633.322 L 615.365,633.322 L 615.526,633.268 L 615.49,633.206 L 615.57,633.188 L 615.731,633.206 L 615.847,633.206 L 616.294,633.161 L 616.473,633.089 L 616.607,633.054 L 616.795,633.045 L 616.902,633.054 L 616.965,633.036 L 617.01,633.027 L 617.224,633 L 617.394,633.018 L 617.412,632.911 L 617.6,632.893 L 617.814,632.937 C 617.814,632.937 618.673,632.651 618.869,632.598 L 618.95,632.732 L 619.111,632.741 L 618.288,633.125 L 618.351,633.214 L 618.145,633.322 L 618.27,633.456 L 618.002,633.492 L 618.038,633.581 L 617.922,633.608 L 617.832,633.644 L 617.975,633.715 L 617.555,633.742 L 617.6,633.858 L 617.278,633.876 L 617.269,633.974 L 617.376,634.055 L 617.43,634.18 L 617.09,634.144 L 617.126,634.269 L 617.332,634.368 L 617.349,634.466 L 617.215,634.395 L 617.054,634.314 L 616.706,634.314 L 616.661,634.43 L 616.554,634.43 L 616.285,634.466 L 616.285,634.573 L 616.375,634.627 L 616.411,634.725 L 615.999,634.752 L 615.99,634.815 L 615.874,634.806 L 615.937,634.886 L 615.767,634.886 L 615.445,634.895 L 615.427,634.994 L 615.15,635.029 L 615.222,635.146 L 615.4,635.208 L 615.409,635.289 L 614.864,635.298 L 614.971,635.468 L 614.873,635.503 L 615.418,635.459 L 615.4,635.369 L 615.642,635.575 L 615.651,635.477 L 615.803,635.45 L 615.767,635.414 L 615.883,635.432 L 615.838,635.333 L 616.357,635.316 L 616.357,635.181 L 616.464,635.11 L 616.455,634.949 L 616.616,634.904 L 616.715,635.307 L 616.795,635.217 L 616.983,635.146 L 616.974,635.047 L 617.153,635.038 L 617.108,634.913 L 616.965,634.806 L 617.081,634.752 L 617.34,635.021 L 617.555,635.038 L 617.51,634.886 L 617.689,634.886 L 617.698,634.752 L 618.422,634.743 L 618.413,634.654 L 618.708,634.627 L 618.691,634.484 L 618.923,634.466 L 618.977,634.377 L 619.37,634.189 L 619.236,634.457 L 619.173,634.565 L 619.12,634.538 L 618.986,634.717 L 618.601,634.77 L 618.583,634.842 L 618.449,634.86 L 618.413,634.994 L 618.244,635.003 L 618.264,635.032 L 618.127,635.137 L 618.118,635.19 L 617.85,635.19 L 617.895,635.247 C 617.895,635.247 617.689,635.333 617.618,635.333 C 617.546,635.333 617.632,635.378 617.632,635.378 L 617.278,635.477 L 617.215,635.593 L 616.947,635.62 L 617.06,635.688 L 616.813,635.754 L 616.742,635.798 L 616.706,635.825 L 616.715,635.879 L 616.438,635.915 L 616.455,636.031 L 616.384,636.049 L 616.429,636.165 L 616.187,636.174 L 615.981,636.308 L 615.365,636.326 L 615.4,636.406 L 615.275,636.451 L 614.694,636.478 L 614.712,636.621 L 614.095,636.612 L 614.131,636.692 L 613.371,636.764 L 613.255,636.88 L 610.599,636.88 L 611.806,637.086 L 612.271,637.122 L 612.459,637.139 L 612.808,637.059 C 612.808,637.059 612.799,637.157 612.826,637.193 C 612.852,637.229 612.834,637.452 612.834,637.452 C 612.834,637.452 612.548,637.381 612.557,637.47 L 612.244,637.318 L 611.824,637.238 L 611.082,637.318 L 610.948,637.479 L 610.751,637.363 L 610.68,637.193 L 610.563,637.22 L 610.555,637.452 L 610.34,637.336 L 610.17,637.283 C 610.17,637.283 609.482,637.265 609.16,637.193 C 609.16,637.193 607.783,637.05 607.434,636.916 C 607.434,636.916 604.529,635.924 603.554,635.325 C 603.554,635.325 599.057,632.803 598.422,632.437 C 598.422,632.437 596.661,630.702 596.5,631.498 C 596.5,631.498 596.536,631.668 596.696,631.748 L 596.544,631.73 C 596.544,631.73 596.607,631.864 596.688,631.882 L 596.473,631.829 C 596.473,631.829 596.607,631.972 596.634,631.972 L 596.544,631.945 C 596.544,631.945 596.571,632.311 596.634,632.338 L 596.652,632.41 C 596.652,632.41 596.482,632.428 596.473,632.365 C 596.473,632.365 596.509,632.696 596.661,632.75 C 596.661,632.75 596.571,632.955 596.696,633.063 C 596.696,633.063 596.5,632.875 596.446,632.875 C 596.446,632.875 596.178,632.812 596.276,632.928 C 596.276,632.928 595.999,632.714 596.124,632.991 C 596.124,632.991 595.731,632.741 595.82,633.027 C 595.82,633.027 593.254,630.899 593.263,631.31 C 593.263,631.31 591.788,629.531 591.958,630.398 C 591.958,630.398 591.341,630.085 591.52,630.434 C 591.52,630.434 591.18,630.049 591.252,630.559 C 591.252,630.559 591.171,630.666 591.234,630.863 C 591.234,630.863 590.751,630.371 590.849,630.72 C 590.849,630.72 590.599,630.72 590.697,630.872 C 590.697,630.872 590.438,630.631 590.402,630.792 C 590.402,630.792 590.206,631.024 591.162,632.016 C 591.162,632.016 589.937,631.221 589.982,631.56 C 589.982,631.56 589.946,631.677 590.071,631.838 C 590.071,631.838 588.721,630.702 588.471,630.479 C 588.471,630.479 586.281,628.449 585.968,628.091 C 585.655,627.734 585.637,627.707 585.637,627.707 C 585.637,627.707 584.761,626.75 584.671,626.509"
               style="fill:#01a769;fill-opacity:1;fill-rule:nonzero;stroke:none"
               id="path913" />
          </g>
        </g>
        <path
           d="M 609.896,624.006 L 610.945,624.006 L 610.921,623.886 L 611.899,623.815 L 611.922,624.006 L 612.495,623.982 L 612.495,623.886 L 612.995,623.815 L 613.043,623.719 L 613.162,623.743 L 613.258,623.624 L 613.591,623.672 L 613.568,623.839 C 613.568,623.839 613.329,623.91 613.21,623.91 C 613.091,623.91 613.234,624.006 613.234,624.006 L 612.828,624.029 L 612.781,624.149 L 612.566,624.172 L 612.423,624.22 L 612.471,624.292 L 612.065,624.339 C 612.018,624.602 612.399,624.602 612.399,624.602 C 612.375,624.84 612.876,624.864 612.876,624.864 C 612.948,625.102 613.472,624.864 613.472,624.864 C 613.591,624.84 613.734,624.959 613.734,624.959 C 613.544,624.983 613.591,625.15 613.591,625.15 C 613.591,625.269 614.354,625.15 614.354,625.15 C 614.163,625.293 614.426,625.317 614.426,625.317 C 614.64,625.341 614.712,625.531 614.712,625.531 C 614.593,625.484 614.521,625.746 614.521,625.746 C 614.521,625.865 614.974,625.746 614.974,625.746 C 615.07,625.913 614.307,626.271 614.307,626.271 C 614.116,626.247 613.901,626.604 613.901,626.604 C 612.733,627.725 611.589,627.534 611.589,627.534 C 611.374,627.391 610.945,627.463 610.945,627.463 C 607.416,627.2 605.271,625.841 605.271,625.841 C 605.247,625.674 603.959,625.293 603.959,625.293 C 603.792,625.293 603.697,625.031 603.697,625.031 C 603.602,625.031 603.411,624.602 603.411,624.602 C 603.22,624.292 603.435,624.292 603.435,624.292 C 603.435,624.292 603.482,624.363 603.506,624.268 C 603.53,624.172 603.459,623.839 603.459,623.839 C 603.244,623.719 603.625,623.719 603.625,623.719 C 603.482,623.529 604.961,623.576 604.961,623.576 C 604.865,623.41 605.247,623.386 605.247,623.386 L 606.177,623.41 C 606.177,623.41 606.782,623.532 607.014,623.532 C 607.014,623.532 607.193,623.594 607.22,623.576 C 607.22,623.576 607.336,623.648 607.381,623.612 C 607.381,623.612 607.64,623.648 607.694,623.621 L 607.953,623.63 L 607.917,623.702 C 607.917,623.702 607.479,623.737 607.461,623.711 C 607.461,623.711 607.3,623.648 607.255,623.657 C 607.255,623.657 607.077,623.603 607.041,623.612 L 606.916,623.612 L 606.826,623.603 C 606.826,623.603 606.495,623.576 606.764,623.702 L 606.683,623.773 C 606.683,623.773 606.826,624.14 607.023,624.095 C 607.22,624.05 606.996,624.104 606.996,624.104 C 606.996,624.104 607.157,623.952 607.086,623.925 L 607.166,623.952 L 606.978,623.827 C 606.978,623.827 607.372,623.934 607.425,623.925 C 607.425,623.925 607.685,624.095 607.756,624.059 C 607.756,624.059 607.881,624.023 607.944,624.05 C 607.944,624.05 608.096,624.175 608.203,624.175 C 608.203,624.175 608.302,624.113 608.248,624.077 C 608.248,624.077 608.427,624.211 608.48,624.202 C 608.48,624.202 609.026,624.274 609.044,624.363 C 609.044,624.363 609.16,624.515 609.231,624.488 C 609.231,624.488 609.267,624.399 609.204,624.318 C 609.204,624.318 609.446,624.292 609.41,624.238 L 609.392,624.193 C 609.392,624.193 609.75,624.265 609.786,624.211 C 609.786,624.211 609.66,624.104 609.491,624.05 C 609.491,624.05 609.115,624.059 609.088,624.015 C 609.088,624.015 608.918,624.006 608.865,623.961 C 608.865,623.961 608.749,623.827 608.668,623.871 C 608.588,623.916 608.641,623.854 608.641,623.854 L 608.418,623.854 C 608.418,623.854 608.364,623.746 608.507,623.755 C 608.507,623.755 608.945,623.925 609.035,623.88 C 609.035,623.88 609.088,624.006 609.401,623.988 C 609.714,623.97 609.374,623.979 609.374,623.979 L 609.491,624.05 L 609.625,624.006 L 609.896,624.006 z"
           style="fill:#01a769;fill-opacity:1;fill-rule:nonzero;stroke:none"
           id="path915" />
        <path
           d="M 609.038,624.626 L 608.871,624.554 L 608.942,624.506 L 609.038,624.626 z"
           style="fill:#ffffff;fill-opacity:1;fill-rule:nonzero;stroke:none"
           id="path917" />
        <path
           d="M 607.309,624.31 L 607.533,624.31 L 607.64,624.31 L 607.586,624.238 L 607.595,624.193 L 607.354,624.167 L 607.363,624.247 L 607.175,624.256 L 607.309,624.31 z"
           style="fill:#ffffff;fill-opacity:1;fill-rule:nonzero;stroke:none"
           id="path919" />
        <path
           d="M 605.002,630.139 C 605.002,630.139 604.931,629.889 604.716,629.853 C 604.716,629.853 604.654,629.719 604.967,629.728 C 604.967,629.728 605.128,629.772 605.235,629.871 C 605.235,629.871 605.047,629.62 604.976,629.594 C 604.976,629.594 605.333,629.629 605.44,629.808 C 605.548,629.987 605.414,629.79 605.414,629.79 C 605.414,629.79 605.816,630.139 606.013,630.13 C 606.013,630.13 605.843,630.237 606.442,630.47 C 606.495,630.505 607.282,630.836 607.381,631.051 L 607.354,631.149 L 607.479,631.301 L 607.872,631.417 L 608.105,631.632 C 608.105,631.632 608.087,631.677 608.123,631.686 C 608.158,631.695 608.203,631.73 608.203,631.73 C 608.203,631.73 608.284,631.739 608.302,631.82 C 608.319,631.9 608.355,631.864 608.355,631.864 L 608.373,631.757 C 608.373,631.757 608.543,631.686 608.561,631.721 L 608.4,631.623 L 608.328,631.56 L 608.292,631.489 C 608.292,631.489 608.489,631.426 608.552,631.605 L 608.623,631.73 L 608.668,631.739 L 608.668,631.614 C 608.668,631.614 608.82,631.641 608.811,631.748 L 608.722,631.802 L 608.713,631.856 L 608.838,631.873 L 608.918,631.909 L 608.981,632.025 L 609.008,632.168 L 608.802,632.159 C 608.802,632.159 608.284,631.909 608.149,631.838 C 608.149,631.838 607.577,631.596 607.515,631.525 C 607.479,631.498 606.925,631.319 606.88,631.274 C 606.88,631.274 606.281,630.89 606.093,630.845 C 606.057,630.827 605.485,630.505 605.423,630.389 C 605.423,630.389 605.065,630.13 605.002,630.139"
           style="fill:#ffffff;fill-opacity:1;fill-rule:nonzero;stroke:none"
           id="path921" />
        <path
           d="M 608.445,632.374 C 608.346,632.311 608.23,632.124 608.266,632.151 C 608.302,632.177 608.507,632.258 608.507,632.258 L 608.427,632.124 L 608.802,632.428 L 608.543,632.32 L 608.516,632.446 L 608.445,632.374 z"
           style="fill:#ffffff;fill-opacity:1;fill-rule:nonzero;stroke:none"
           id="path923" />
        <path
           d="M 610.107,632.428 L 609.848,632.329 L 609.884,632.222 L 610.072,632.32 L 610.107,632.428 z"
           style="fill:#ffffff;fill-opacity:1;fill-rule:nonzero;stroke:none"
           id="path925" />
        <path
           d="M 611.905,632.759 C 611.842,632.669 611.735,632.508 611.771,632.517 C 611.806,632.526 612.665,632.714 612.665,632.714 L 612.638,632.785 L 611.905,632.759 z"
           style="fill:#ffffff;fill-opacity:1;fill-rule:nonzero;stroke:none"
           id="path927" />
        <path
           d="M 612.557,633.331 L 612.557,633.179 L 613.031,633.232 C 613.031,633.232 613.085,633.295 613.058,633.304 C 613.031,633.313 612.557,633.331 612.557,633.331"
           style="fill:#ffffff;fill-opacity:1;fill-rule:nonzero;stroke:none"
           id="path929" />
        <path
           d="M 614.006,632.893 C 613.961,632.875 613.809,632.83 613.809,632.83 L 613.871,632.741 L 614.167,632.794 L 614.167,632.911 L 614.006,632.893 z"
           style="fill:#ffffff;fill-opacity:1;fill-rule:nonzero;stroke:none"
           id="path931" />
        <path
           d="M 616.491,634.207 L 616.464,634.287 L 615.928,634.198 L 616.321,634.126 L 616.491,634.207 z"
           style="fill:#ffffff;fill-opacity:1;fill-rule:nonzero;stroke:none"
           id="path933" />
        <path
           d="M 613.04,635.521 L 613.362,635.611 L 613.362,635.584 L 613.103,635.441 L 613.04,635.521 z"
           style="fill:#ffffff;fill-opacity:1;fill-rule:nonzero;stroke:none"
           id="path935" />
        <path
           d="M 609.875,637.157 L 609.83,637.032 L 609.589,636.952 C 609.589,636.952 609.607,637.059 609.634,637.059 C 609.66,637.059 609.875,637.157 609.875,637.157"
           style="fill:#ffffff;fill-opacity:1;fill-rule:nonzero;stroke:none"
           id="path937" />
        <path
           d="M 608.641,637.041 L 608.722,637.005 L 608.489,636.737 L 608.436,636.782 L 608.641,637.041 z"
           style="fill:#ffffff;fill-opacity:1;fill-rule:nonzero;stroke:none"
           id="path939" />
        <path
           d="M 609.687,627.85 L 609.681,630.622 L 610.134,630.872 L 610.134,627.814"
           style="fill:#226cab;fill-opacity:1;fill-rule:nonzero;stroke:none"
           id="path941" />
        <path
           d="M 609.669,623.559 L 609.669,620.65 L 610.122,620.65 L 610.122,623.648"
           style="fill:#226cab;fill-opacity:1;fill-rule:nonzero;stroke:none"
           id="path943" />
        <path
           d="M 608.501,627.635 L 608.501,630.193 L 608.954,630.389 L 608.954,627.725"
           style="fill:#226cab;fill-opacity:1;fill-rule:nonzero;stroke:none"
           id="path945" />
        <path
           d="M 608.501,623.398 L 608.501,620.656 L 608.954,620.656 L 608.954,623.433"
           style="fill:#226cab;fill-opacity:1;fill-rule:nonzero;stroke:none"
           id="path947" />
        <path
           d="M 607.357,623.255 L 607.357,620.656 L 607.81,620.656 L 607.81,623.29"
           style="fill:#226cab;fill-opacity:1;fill-rule:nonzero;stroke:none"
           id="path949" />
        <path
           d="M 607.81,627.367 L 607.81,629.853 L 607.357,629.567 L 607.357,627.278"
           style="fill:#226cab;fill-opacity:1;fill-rule:nonzero;stroke:none"
           id="path951" />
        <path
           d="M 606.633,620.65 L 606.179,620.65 L 606.165,623.201 L 606.63,623.165"
           style="fill:#226cab;fill-opacity:1;fill-rule:nonzero;stroke:none"
           id="path953" />
        <path
           d="M 606.179,628.995 L 606.179,626.759 L 606.63,626.974 L 606.612,629.138 L 606.179,628.995 z"
           style="fill:#226cab;fill-opacity:1;fill-rule:nonzero;stroke:none"
           id="path955" />
        <path
           d="M 604.949,623.201 L 604.961,620.65 L 605.414,620.65 L 605.414,623.147"
           style="fill:#226cab;fill-opacity:1;fill-rule:nonzero;stroke:none"
           id="path957" />
        <path
           d="M 603.801,623.308 L 603.801,620.659 L 604.254,620.659 L 604.251,623.219"
           style="fill:#226cab;fill-opacity:1;fill-rule:nonzero;stroke:none"
           id="path959" />
        <path
           d="M 603.801,625.74 L 603.801,627.439 L 603.801,625.74 L 604.269,625.865 L 604.251,627.832 L 603.801,627.439"
           style="fill:#226cab;fill-opacity:1;fill-rule:nonzero;stroke:none"
           id="path961" />
        <path
           d="M 602.621,626.724 L 602.621,620.659 L 603.074,620.659 L 603.074,626.992"
           style="fill:#226cab;fill-opacity:1;fill-rule:nonzero;stroke:none"
           id="path963" />
        <path
           d="M 601.459,625.901 L 601.459,620.659 L 601.912,620.659 L 601.912,626.276"
           style="fill:#226cab;fill-opacity:1;fill-rule:nonzero;stroke:none"
           id="path965" />
        <path
           d="M 600.279,624.918 L 600.279,620.659 L 600.732,620.659 L 600.732,625.382"
           style="fill:#226cab;fill-opacity:1;fill-rule:nonzero;stroke:none"
           id="path967" />
        <path
           d="M 599.063,623.755 L 599.063,620.659 L 599.516,620.659 L 599.516,624.292"
           style="fill:#226cab;fill-opacity:1;fill-rule:nonzero;stroke:none"
           id="path969" />
        <path
           d="M 597.918,622.879 L 597.918,620.677 L 598.371,620.677 L 598.371,623.219"
           style="fill:#226cab;fill-opacity:1;fill-rule:nonzero;stroke:none"
           id="path971" />
        <path
           d="M 596.72,621.967 L 596.72,620.659 L 597.173,620.659 L 597.173,622.199"
           style="fill:#226cab;fill-opacity:1;fill-rule:nonzero;stroke:none"
           id="path973" />
        <path
           d="M 595.594,621.288 L 595.594,620.677 L 596.047,620.677 L 596.047,621.52"
           style="fill:#226cab;fill-opacity:1;fill-rule:nonzero;stroke:none"
           id="path975" />
        <path
           d="M 604.984,626.116 L 605.449,626.366 L 605.449,628.494 L 604.984,628.208 L 604.988,626.187"
           style="fill:#226cab;fill-opacity:1;fill-rule:nonzero;stroke:none"
           id="path977" />
        <path
           d="M 588.689,618.579 L 588.689,617.434 C 588.689,617.117 588.784,616.824 589.157,616.824 C 589.531,616.824 589.626,617.117 589.626,617.434 L 589.626,618.579 L 589.868,618.579 L 589.868,617.351 C 589.868,616.924 589.603,616.597 589.157,616.597 C 588.712,616.597 588.447,616.924 588.447,617.351 L 588.447,618.579 L 588.689,618.579 z"
           style="fill:#226cab;fill-opacity:1;fill-rule:nonzero;stroke:none"
           id="path979" />
        <path
           d="M 590.18,618.672 L 591.636,617.145 L 591.636,618.579 L 591.878,618.579 L 591.878,616.559 L 590.422,618.085 L 590.422,616.638 L 590.18,616.638 L 590.18,618.672 z"
           style="fill:#226cab;fill-opacity:1;fill-rule:nonzero;stroke:none"
           id="path981" />
        <path
           d="M 592.458,616.638 L 592.216,616.638 L 592.216,618.578 L 592.458,618.578 L 592.458,616.638 z"
           style="fill:#226cab;fill-opacity:1;fill-rule:nonzero;stroke:none"
           id="path983" />
        <path
           d="M 593.462,617.143 L 594.039,618.579 L 594.304,618.579 L 593.462,616.536 L 592.618,618.579 L 592.883,618.579 L 593.462,617.143 z"
           style="fill:#226cab;fill-opacity:1;fill-rule:nonzero;stroke:none"
           id="path985" />
        <path
           d="M 594.469,618.579 L 595.511,618.579 L 595.511,618.358 L 594.711,618.358 L 594.711,617.815 L 595.488,617.815 L 595.488,617.593 L 594.711,617.593 L 594.711,616.86 L 595.511,616.86 L 595.511,616.638 L 594.469,616.638 L 594.469,618.579 z"
           style="fill:#226cab;fill-opacity:1;fill-rule:nonzero;stroke:none"
           id="path987" />
        <path
           d="M 596.052,617.66 L 596.13,617.66 C 596.377,617.66 596.644,617.706 596.644,618.015 C 596.644,618.319 596.356,618.363 596.117,618.363 L 596.052,618.363 L 596.052,617.66 z M 597.017,616.638 L 596.724,616.638 L 596.153,617.459 L 596.052,617.459 L 596.052,616.638 L 595.81,616.638 L 595.81,618.579 L 596.104,618.579 C 596.276,618.579 596.462,618.576 596.616,618.489 C 596.778,618.394 596.871,618.211 596.871,618.026 C 596.871,617.748 596.685,617.516 596.405,617.483 L 597.017,616.638 z"
           style="fill:#226cab;fill-opacity:1;fill-rule:nonzero;stroke:none"
           id="path989" />
        <path
           d="M 598.071,618.211 C 597.999,618.332 597.906,618.394 597.759,618.394 C 597.605,618.394 597.435,618.288 597.435,618.118 C 597.435,617.966 597.584,617.886 597.705,617.84 L 597.844,617.786 C 598.12,617.678 598.326,617.526 598.326,617.202 C 598.326,616.849 598.053,616.597 597.705,616.597 C 597.391,616.597 597.147,616.829 597.106,617.14 L 597.35,617.192 C 597.348,616.978 597.517,616.824 597.726,616.824 C 597.934,616.824 598.083,616.999 598.083,617.202 C 598.083,617.411 597.916,617.501 597.749,617.57 L 597.615,617.627 C 597.394,617.722 597.193,617.848 597.193,618.118 C 597.193,618.432 597.471,618.62 597.764,618.62 C 597.981,618.62 598.158,618.514 598.264,618.327 L 598.071,618.211 z"
           style="fill:#226cab;fill-opacity:1;fill-rule:nonzero;stroke:none"
           id="path991" />
        <path
           d="M 598.825,616.638 L 598.583,616.638 L 598.583,618.578 L 598.825,618.578 L 598.825,616.638 z"
           style="fill:#226cab;fill-opacity:1;fill-rule:nonzero;stroke:none"
           id="path993" />
        <path
           d="M 599.711,616.638 L 599.469,616.638 L 599.469,618.358 L 599.008,618.358 L 599.008,618.579 L 600.171,618.579 L 600.171,618.358 L 599.711,618.358 L 599.711,616.638 z"
           style="fill:#226cab;fill-opacity:1;fill-rule:nonzero;stroke:none"
           id="path995" />
        <path
           d="M 600.362,618.579 L 601.404,618.579 L 601.404,618.358 L 600.604,618.358 L 600.604,617.815 L 601.381,617.815 L 601.381,617.593 L 600.604,617.593 L 600.604,616.86 L 601.404,616.86 L 601.404,616.638 L 600.362,616.638 L 600.362,618.579 z"
           style="fill:#226cab;fill-opacity:1;fill-rule:nonzero;stroke:none"
           id="path997" />
        <path
           d="M 602.668,616.86 L 602.753,616.86 C 603.247,616.86 603.675,617.045 603.675,617.609 C 603.675,618.175 603.247,618.358 602.753,618.358 L 602.668,618.358 L 602.668,616.86 z M 602.427,618.579 L 602.828,618.579 C 603.422,618.579 603.917,618.265 603.917,617.619 C 603.917,616.958 603.433,616.638 602.82,616.638 L 602.427,616.638 L 602.427,618.579 z"
           style="fill:#226cab;fill-opacity:1;fill-rule:nonzero;stroke:none"
           id="path999" />
        <path
           d="M 604.457,618.579 L 604.411,617.735 L 604.251,617.735 L 604.205,618.579 L 604.457,618.579 z"
           style="fill:#226cab;fill-opacity:1;fill-rule:nonzero;stroke:none"
           id="path1001" />
        <path
           d="M 606.526,617.609 C 606.526,618.036 606.207,618.394 605.752,618.394 C 605.296,618.394 604.977,618.036 604.977,617.609 C 604.977,617.166 605.332,616.824 605.752,616.824 C 606.171,616.824 606.526,617.166 606.526,617.609 M 606.768,617.609 C 606.768,617.032 606.313,616.597 605.752,616.597 C 605.191,616.597 604.735,617.032 604.735,617.609 C 604.735,618.164 605.196,618.62 605.752,618.62 C 606.308,618.62 606.768,618.164 606.768,617.609"
           style="fill:#226cab;fill-opacity:1;fill-rule:nonzero;stroke:none"
           id="path1003" />
        <path
           d="M 607.245,617.66 L 607.322,617.66 C 607.57,617.66 607.837,617.706 607.837,618.015 C 607.837,618.319 607.549,618.363 607.31,618.363 L 607.245,618.363 L 607.245,617.66 z M 608.21,616.638 L 607.917,616.638 L 607.346,617.459 L 607.245,617.459 L 607.245,616.638 L 607.003,616.638 L 607.003,618.579 L 607.297,618.579 C 607.469,618.579 607.655,618.576 607.809,618.489 C 607.971,618.394 608.064,618.211 608.064,618.026 C 608.064,617.748 607.878,617.516 607.598,617.483 L 608.21,616.638 z"
           style="fill:#226cab;fill-opacity:1;fill-rule:nonzero;stroke:none"
           id="path1005" />
        <path
           d="M 608.644,616.86 L 609.233,616.86 L 609.233,616.638 L 608.401,616.638 L 608.401,618.579 L 608.644,618.579 L 608.644,616.86 z"
           style="fill:#226cab;fill-opacity:1;fill-rule:nonzero;stroke:none"
           id="path1007" />
        <path
           d="M 609.392,618.579 L 610.435,618.579 L 610.435,618.358 L 609.634,618.358 L 609.634,617.815 L 610.411,617.815 L 610.411,617.593 L 609.634,617.593 L 609.634,616.86 L 610.435,616.86 L 610.435,616.638 L 609.392,616.638 L 609.392,618.579 z"
           style="fill:#226cab;fill-opacity:1;fill-rule:nonzero;stroke:none"
           id="path1009" />
        <path
           d="M 611.454,618.131 L 611.11,617.346 L 611.799,617.346 L 611.454,618.131 z M 611.009,617.125 L 610.788,616.638 L 610.528,616.638 L 611.454,618.661 L 612.381,616.638 L 612.121,616.638 L 611.9,617.125 L 611.009,617.125 z"
           style="fill:#226cab;fill-opacity:1;fill-rule:nonzero;stroke:none"
           id="path1011" />
        <path
           d="M 612.521,618.672 L 613.977,617.145 L 613.977,618.579 L 614.219,618.579 L 614.219,616.559 L 612.763,618.085 L 612.763,616.638 L 612.521,616.638 L 612.521,618.672 z"
           style="fill:#226cab;fill-opacity:1;fill-rule:nonzero;stroke:none"
           id="path1013" />
        <path
           d="M 615.427,618.211 C 615.355,618.332 615.262,618.394 615.115,618.394 C 614.961,618.394 614.791,618.288 614.791,618.118 C 614.791,617.966 614.94,617.886 615.062,617.84 L 615.201,617.786 C 615.476,617.678 615.682,617.526 615.682,617.202 C 615.682,616.849 615.409,616.597 615.062,616.597 C 614.747,616.597 614.503,616.829 614.462,617.14 L 614.706,617.192 C 614.704,616.978 614.874,616.824 615.082,616.824 C 615.29,616.824 615.44,616.999 615.44,617.202 C 615.44,617.411 615.272,617.501 615.105,617.57 L 614.971,617.627 C 614.75,617.722 614.549,617.848 614.549,618.118 C 614.549,618.432 614.827,618.62 615.121,618.62 C 615.337,618.62 615.514,618.514 615.62,618.327 L 615.427,618.211 z"
           style="fill:#226cab;fill-opacity:1;fill-rule:nonzero;stroke:none"
           id="path1015" />
        <path
           d="M 613.043,637.381 L 613.115,637.345 L 613.103,637.274 L 612.983,637.274 L 613.043,637.381 z"
           style="fill:#01a769;fill-opacity:1;fill-rule:nonzero;stroke:none"
           id="path1017" />
        <path
           d="M 613.305,637.357 L 613.329,637.321 L 613.269,637.262 L 613.293,637.321 L 613.305,637.357 z"
           style="fill:#01a769;fill-opacity:1;fill-rule:nonzero;stroke:none"
           id="path1019" />
        <path
           d="M 613.496,637.226 L 613.436,637.178 L 613.484,637.166 L 613.496,637.226 z"
           style="fill:#01a769;fill-opacity:1;fill-rule:nonzero;stroke:none"
           id="path1021" />
        <path
           d="M 612.972,637.19 L 612.983,637.119 L 612.9,637.095 L 612.936,637.166 L 612.972,637.19 z"
           style="fill:#01a769;fill-opacity:1;fill-rule:nonzero;stroke:none"
           id="path1023" />
        <path
           d="M 613.877,637.309 L 613.758,637.262 L 613.794,637.25 L 613.842,637.297 L 614.044,637.262 L 613.854,637.25 L 613.877,637.309 z"
           style="fill:#01a769;fill-opacity:1;fill-rule:nonzero;stroke:none"
           id="path1025" />
        <path
           d="M 614.45,637.083 L 614.414,637.023 L 614.45,637.011 L 614.45,637.047 L 614.521,636.964 L 614.521,636.928 L 614.605,636.928 L 614.521,636.964 L 614.45,637.083 z"
           style="fill:#01a769;fill-opacity:1;fill-rule:nonzero;stroke:none"
           id="path1027" />
        <path
           d="M 614.068,637.119 L 614.128,637.095 L 614.068,637.119 z"
           style="fill:#01a769;fill-opacity:1;fill-rule:nonzero;stroke:none"
           id="path1029" />
      </g>
    </g>
  </g>
</svg>
